<svg width="84" height="16" viewBox="0 0 84 16" fill="none" xmlns="http://www.w3.org/2000/svg">
<path d="M4.84514 13.119C3.97248 13.119 3.19048 12.9773 2.49914 12.694C1.80781 12.4107 1.25248 11.9913 0.833145 11.436C0.425145 10.8807 0.209811 10.212 0.187145 9.43H3.28114C3.32648 9.872 3.47948 10.212 3.74014 10.45C4.00081 10.6767 4.34081 10.79 4.76014 10.79C5.19081 10.79 5.53081 10.6937 5.78014 10.501C6.02948 10.297 6.15414 10.0193 6.15414 9.668C6.15414 9.37333 6.05214 9.12967 5.84815 8.937C5.65548 8.74433 5.41181 8.58567 5.11714 8.461C4.83381 8.33633 4.42581 8.19467 3.89314 8.036C3.12248 7.798 2.49348 7.56 2.00614 7.322C1.51881 7.084 1.09948 6.73267 0.748145 6.268C0.396811 5.80333 0.221145 5.197 0.221145 4.449C0.221145 3.33833 0.623478 2.47133 1.42814 1.848C2.23281 1.21333 3.28114 0.896 4.57314 0.896C5.88781 0.896 6.94748 1.21333 7.75214 1.848C8.55681 2.47133 8.98748 3.344 9.04414 4.466H5.89914C5.87648 4.08067 5.73481 3.78033 5.47414 3.565C5.21348 3.33833 4.87914 3.225 4.47114 3.225C4.11981 3.225 3.83648 3.32133 3.62114 3.514C3.40581 3.69533 3.29814 3.96167 3.29814 4.313C3.29814 4.69833 3.47948 4.99867 3.84214 5.214C4.20481 5.42933 4.77148 5.66167 5.54214 5.911C6.31281 6.17167 6.93614 6.421 7.41214 6.659C7.89948 6.897 8.31881 7.24267 8.67014 7.696C9.02148 8.14933 9.19714 8.733 9.19714 9.447C9.19714 10.127 9.02148 10.7447 8.67014 11.3C8.33015 11.8553 7.83148 12.2973 7.17414 12.626C6.51681 12.9547 5.74048 13.119 4.84514 13.119ZM21.3221 1.066V13H18.4151V8.087H13.8931V13H10.9861V1.066H13.8931V5.741H18.4151V1.066H21.3221ZM29.0647 13.119C27.9427 13.119 26.9114 12.8583 25.9707 12.337C25.0414 11.8157 24.299 11.0903 23.7437 10.161C23.1997 9.22033 22.9277 8.16633 22.9277 6.999C22.9277 5.83167 23.1997 4.78333 23.7437 3.854C24.299 2.92467 25.0414 2.19933 25.9707 1.678C26.9114 1.15667 27.9427 0.896 29.0647 0.896C30.1867 0.896 31.2124 1.15667 32.1417 1.678C33.0824 2.19933 33.819 2.92467 34.3517 3.854C34.8957 4.78333 35.1677 5.83167 35.1677 6.999C35.1677 8.16633 34.8957 9.22033 34.3517 10.161C33.8077 11.0903 33.071 11.8157 32.1417 12.337C31.2124 12.8583 30.1867 13.119 29.0647 13.119ZM29.0647 10.467C30.0167 10.467 30.776 10.1497 31.3427 9.515C31.9207 8.88033 32.2097 8.04167 32.2097 6.999C32.2097 5.945 31.9207 5.10633 31.3427 4.483C30.776 3.84833 30.0167 3.531 29.0647 3.531C28.1014 3.531 27.3307 3.84267 26.7527 4.466C26.186 5.08933 25.9027 5.93367 25.9027 6.999C25.9027 8.053 26.186 8.89733 26.7527 9.532C27.3307 10.1553 28.1014 10.467 29.0647 10.467ZM44.554 1.066V3.395H39.692V5.911H43.33V8.172H39.692V13H36.785V1.066H44.554ZM48.9888 1.066V13H46.0818V1.066H48.9888ZM59.5955 15.04L58.0655 12.983C57.6122 13.0737 57.1702 13.119 56.7395 13.119C55.6175 13.119 54.5862 12.8583 53.6455 12.337C52.7162 11.8157 51.9738 11.0903 51.4185 10.161C50.8745 9.22033 50.6025 8.16633 50.6025 6.999C50.6025 5.83167 50.8745 4.78333 51.4185 3.854C51.9738 2.92467 52.7162 2.19933 53.6455 1.678C54.5862 1.15667 55.6175 0.896 56.7395 0.896C57.8615 0.896 58.8872 1.15667 59.8165 1.678C60.7572 2.19933 61.4938 2.92467 62.0265 3.854C62.5705 4.78333 62.8425 5.83167 62.8425 6.999C62.8425 8.019 62.6328 8.954 62.2135 9.804C61.8055 10.6427 61.2332 11.3397 60.4965 11.895L63.1145 15.04H59.5955ZM53.5775 6.999C53.5775 8.053 53.8608 8.89733 54.4275 9.532C55.0055 10.1553 55.7762 10.467 56.7395 10.467C57.6915 10.467 58.4508 10.1497 59.0175 9.515C59.5955 8.88033 59.8845 8.04167 59.8845 6.999C59.8845 5.945 59.5955 5.10633 59.0175 4.483C58.4508 3.84833 57.6915 3.531 56.7395 3.531C55.7762 3.531 55.0055 3.84267 54.4275 4.466C53.8608 5.08933 53.5775 5.93367 53.5775 6.999ZM67.349 1.066V8.206C67.349 8.92 67.5246 9.46967 67.876 9.855C68.2273 10.2403 68.743 10.433 69.423 10.433C70.103 10.433 70.6243 10.2403 70.987 9.855C71.3496 9.46967 71.531 8.92 71.531 8.206V1.066H74.438V8.189C74.438 9.25433 74.2113 10.1553 73.758 10.892C73.3046 11.6287 72.6926 12.184 71.922 12.558C71.1626 12.932 70.3126 13.119 69.372 13.119C68.4313 13.119 67.587 12.9377 66.839 12.575C66.1023 12.201 65.5186 11.6457 65.088 10.909C64.6573 10.161 64.442 9.25433 64.442 8.189V1.066H67.349ZM79.3863 10.756H83.1943V13H76.4793V1.066H79.3863V10.756Z" fill="white"/>
</svg>