<svg width="384" height="278" viewBox="0 0 384 278" fill="none" xmlns="http://www.w3.org/2000/svg">
<path d="M368 155H16C7.16797 155 0 147.832 0 139C0 130.168 7.16797 123 16 123H368C376.832 123 384 130.168 384 139C384 147.832 376.832 155 368 155Z" fill="white"/>
<path d="M369.792 32H57.2083C49.3653 32 43 24.832 43 16C43 7.16797 49.3653 0 57.2083 0H369.792C377.635 0 384 7.16797 384 16C384 24.832 377.635 32 369.792 32Z" fill="white"/>
<path d="M368 277.332H16C7.16797 277.332 0 270.164 0 261.332C0 252.5 7.16797 245.332 16 245.332H368C376.832 245.332 384 252.5 384 261.332C384 270.164 376.832 277.332 368 277.332Z" fill="white"/>
</svg>
