<svg width="38" height="38" viewBox="0 0 38 38" fill="none" xmlns="http://www.w3.org/2000/svg">
<path d="M37.2 17.102L20.897 0.8C20.398 0.3 19.7 0 19 0C18.3 0 17.602 0.3 17.102 0.8L13.602 4.3L17.699 8.398C18.102 8.199 18.5 8.102 19 8.102C20.7 8.102 22 9.398 22 11.102C22 11.602 21.898 12 21.7 12.398L25.7 16.398C26.102 16.199 26.5 16.102 27 16.102C28.7 16.102 30 17.398 30 19.102C30 20.801 28.7 22.102 27 22.102C25.3 22.102 24 20.801 24 19.102C24 18.602 24.102 18.199 24.3 17.801L20.3 13.801C20.2 13.801 20.102 13.898 20 13.898V24.301C21.2 24.699 22 25.801 22 27.101C22 28.801 20.7 30.101 19 30.101C17.3 30.101 16 28.801 16 27.101C16 25.801 16.8 24.699 18 24.301V13.8C16.8 13.397 16 12.3 16 10.999C16 10.499 16.102 10.101 16.3 9.699L12.2 5.601L0.8 17.101C0.3 17.602 0 18.3 0 19C0 19.7 0.3 20.398 0.8 20.898L17.103 37.2C17.603 37.7 18.302 38.001 19.001 38.001C19.701 38.001 20.399 37.701 20.899 37.201L37.2 20.897C37.7 20.397 38.001 19.698 38.001 18.999C38.001 18.299 37.701 17.601 37.201 17.101L37.2 17.102Z" fill="white"/>
</svg>
