<svg width="64" height="64" viewBox="0 0 64 64" fill="none" xmlns="http://www.w3.org/2000/svg">
<path fill-rule="evenodd" clip-rule="evenodd" d="M31.9988 0.799863C14.3293 0.799863 0 15.1268 0 32.7986C0 46.9378 9.1678 58.9284 21.8826 63.1616C23.483 63.458 24.0712 62.4659 24.0712 61.6202C24.0712 60.8572 24.0393 58.3367 24.0263 55.665C15.1231 57.6009 13.2463 51.8878 13.2463 51.8878C11.7911 48.1885 9.6934 47.2047 9.6934 47.2047C6.7902 45.2168 9.9143 45.2605 9.9143 45.2605C13.1269 45.485 14.8183 48.5559 14.8183 48.5559C17.6743 53.4481 22.3066 52.0319 24.1314 51.2157C24.4196 49.1476 25.2464 47.735 26.1629 46.9354C19.0549 46.1287 11.5832 43.3838 11.5832 31.1214C11.5832 27.6288 12.8352 24.7729 14.8797 22.5334C14.5467 21.7256 13.4506 18.4728 15.188 14.066C15.188 14.066 17.875 13.205 23.9909 17.346C26.5421 16.6385 29.2787 16.2818 31.9965 16.27C34.7165 16.2818 37.4579 16.6373 40.0127 17.346C46.1203 13.2074 48.8049 14.066 48.8049 14.066C50.5447 18.474 49.4534 21.7291 49.1203 22.5335C51.1719 24.7729 52.4133 27.6288 52.4133 31.1214C52.4133 43.4121 44.925 46.1144 37.8016 46.907C38.9497 47.8991 39.9749 49.8468 39.9749 52.8303C39.9749 57.1095 39.9383 60.5583 39.9383 61.6107C39.9383 62.4623 40.5147 63.458 42.1375 63.1461C54.8451 58.9107 64.0012 46.9187 64.0012 32.7879C64.0012 15.1184 49.6743 0.789062 32.0012 0.789062L31.9989 0.799763L31.9988 0.799863Z" fill="white"/>
</svg>