<svg width="207" height="124" viewBox="0 0 207 124" fill="none" xmlns="http://www.w3.org/2000/svg">
<path d="M48.9453 32.6343H87.9043V35.7159H52.5166V58.9093H85.794V61.9909H52.5166V87.4549H88.3101V90.5366H48.9453V32.6343ZM91.3944 32.6343H95.5337L113.877 58.0983L132.626 32.6343L158.128 0.289062L116.231 60.7745L137.82 90.5366H133.519L113.877 63.4506L94.1539 90.5366H89.9334L111.685 60.7745L91.3944 32.6343ZM139.363 35.7159V32.6343H183.76V35.7159H163.306V90.5366H159.735V35.7159H139.363Z" fill="white"/>
<path d="M0.203125 32.6328H4.66717L66.2238 124.304L40.7854 90.5351L3.93669 37.012L3.77436 90.5351H0.203125V32.6328Z" fill="white"/>
<path d="M183.398 86.5261C184.136 86.5261 184.675 85.9635 184.675 85.2364C184.675 84.5093 184.136 83.9467 183.398 83.9467C182.668 83.9467 182.121 84.5093 182.121 85.2364C182.121 85.9635 182.668 86.5261 183.398 86.5261ZM186.907 83.1331C186.907 85.2797 188.462 86.6819 190.729 86.6819C193.144 86.6819 194.603 85.2364 194.603 82.7263V73.8889H192.657V82.7176C192.657 84.1112 191.954 84.8555 190.712 84.8555C189.6 84.8555 188.844 84.1631 188.818 83.1331H186.907ZM197.148 83.0206C197.287 85.2537 199.154 86.6819 201.934 86.6819C204.905 86.6819 206.763 85.1845 206.763 82.7955C206.763 80.9172 205.704 79.8786 203.133 79.2813L201.752 78.9438C200.119 78.5629 199.458 78.0522 199.458 77.1607C199.458 76.0355 200.483 75.2997 202.021 75.2997C203.48 75.2997 204.488 76.0182 204.67 77.1694H206.564C206.451 75.066 204.592 73.5859 202.047 73.5859C199.311 73.5859 197.487 75.066 197.487 77.2905C197.487 79.1255 198.52 80.2161 200.787 80.7441L202.403 81.1336C204.062 81.5231 204.792 82.0944 204.792 83.0465C204.792 84.1544 203.645 84.9594 202.082 84.9594C200.405 84.9594 199.241 84.2064 199.076 83.0206H197.148Z" fill="white"/>
</svg>
