<svg width="2260" height="2490" viewBox="0 0 2260 2490" fill="none" xmlns="http://www.w3.org/2000/svg">
<path d="M1027.83 26.7356C1089.55 -8.59244 1169.94 -8.75202 1231.61 26.7356C1541.85 202.037 1852.19 377.064 2162.37 552.471C2220.71 585.335 2259.74 650.264 2259.15 717.489V1772.17C2259.58 1842.18 2216.7 1908.66 2155.15 1940.78C1845.93 2115.11 1536.87 2289.66 1227.7 2464C1164.7 2500.02 1082.7 2497.24 1021.67 2458.27C928.968 2404.53 836.105 2351.05 743.392 2297.37C724.447 2286.07 703.091 2277.08 689.713 2258.71C701.539 2242.77 722.683 2240.79 739.864 2233.83C778.561 2221.52 814.101 2201.77 849.651 2182.6C858.64 2176.45 869.616 2178.81 878.233 2184.32C957.506 2229.77 1036.08 2276.54 1115.62 2321.56C1132.59 2331.35 1149.77 2318.35 1164.27 2310.26C1467.71 2138.77 1771.52 1967.91 2074.91 1796.36C2086.15 1790.96 2092.36 1779.02 2091.45 1766.71C2091.66 1418.79 2091.5 1070.81 2091.56 722.897C2092.84 708.925 2084.76 696.08 2072.12 690.361C1763.98 516.824 1455.99 343.021 1147.9 169.439C1142.56 165.77 1136.23 163.801 1129.76 163.791C1123.28 163.782 1116.95 165.732 1111.6 169.386C803.507 343.021 495.573 516.984 187.479 690.512C174.89 696.239 166.442 708.872 167.94 722.897C167.993 1070.81 167.94 1418.79 167.94 1766.76C167.406 1772.77 168.725 1778.8 171.721 1784.03C174.717 1789.27 179.245 1793.46 184.695 1796.04C266.912 1842.67 349.234 1888.96 431.504 1935.42C477.851 1960.37 534.757 1975.19 585.821 1956.08C630.883 1939.92 662.47 1893.93 661.61 1846.09C662.036 1500.2 661.398 1154.26 661.929 808.429C660.804 793.074 675.369 780.388 690.298 781.833C729.802 781.567 769.358 781.301 808.862 781.94C825.351 781.567 836.699 798.101 834.66 813.571C834.5 1161.65 835.085 1509.73 834.394 1857.81C834.5 1950.57 796.389 2051.51 710.582 2096.9C604.873 2151.66 474.217 2140.05 369.784 2087.54C279.376 2042.42 193.1 1989.16 104.296 1940.82C42.5854 1908.88 -0.0830169 1842.13 0.35138 1772.18V717.489C-0.295783 648.872 40.2805 582.764 100.44 550.379C409.607 375.902 718.72 201.292 1027.83 26.7356Z" fill="white"/>
<path d="M1297.55 757.321C1432.39 748.642 1576.75 752.179 1698.09 818.606C1792.03 869.51 1844.11 976.345 1845.77 1080.72C1843.15 1094.79 1828.43 1102.56 1814.99 1101.59C1775.87 1101.54 1736.74 1102.13 1697.62 1101.33C1681.02 1101.97 1671.37 1086.66 1669.29 1071.99C1658.05 1022.05 1630.82 972.595 1583.81 948.509C1511.66 912.383 1428 914.2 1349.32 914.954C1291.88 918.003 1230.12 922.977 1181.45 956.753C1144.1 982.338 1132.75 1033.99 1146.08 1075.58C1158.65 1105.45 1193.13 1115.09 1221.34 1123.97C1383.84 1166.47 1556.04 1162.24 1715.43 1218.17C1781.43 1240.97 1845.98 1285.3 1868.57 1354.4C1898.12 1447 1885.17 1557.69 1819.28 1632.04C1765.85 1693.22 1688.03 1726.51 1610.42 1744.6C1507.16 1767.62 1400.01 1768.21 1295.15 1757.99C1196.55 1746.74 1093.94 1720.84 1017.83 1653.66C952.739 1597.14 920.949 1509.08 924.105 1424.09C924.858 1409.74 939.149 1399.73 952.899 1400.91C992.296 1400.59 1031.69 1400.49 1071.09 1400.96C1086.83 1399.84 1098.49 1413.44 1099.3 1428.27C1106.57 1475.85 1124.45 1525.79 1165.94 1554C1246.01 1605.65 1346.48 1602.12 1438.16 1603.56C1514.12 1600.19 1599.39 1599.17 1661.37 1548.97C1694.08 1520.33 1703.77 1472.43 1694.93 1431.21C1685.35 1396.42 1648.95 1380.2 1617.69 1369.6C1457.28 1318.85 1283.16 1337.27 1124.29 1279.88C1059.8 1257.09 997.429 1214 972.651 1147.74C938.076 1053.96 953.918 937.968 1026.71 866.133C1097.69 794.679 1200.14 767.161 1297.55 757.312V757.321Z" fill="white"/>
</svg>
