<svg width="28" height="24" viewBox="0 0 28 24" fill="none" xmlns="http://www.w3.org/2000/svg">
<path d="M16.3152 11.9858C16.3152 12.2999 16.2534 12.6109 16.1332 12.9011C16.013 13.1913 15.8368 13.455 15.6146 13.6771C15.3925 13.8993 15.1288 14.0755 14.8386 14.1957C14.5484 14.3159 14.2374 14.3777 13.9233 14.3777C13.6091 14.3777 13.2981 14.3159 13.0079 14.1957C12.7177 14.0755 12.454 13.8993 12.2319 13.6771C12.0097 13.455 11.8335 13.1913 11.7133 12.9011C11.5931 12.6109 11.5312 12.2999 11.5313 11.9858C11.5313 11.3514 11.7833 10.7429 12.2319 10.2944C12.6804 9.84576 13.2889 9.59375 13.9233 9.59375C14.5576 9.59375 15.1661 9.84576 15.6146 10.2944C16.0632 10.7429 16.3152 11.3514 16.3152 11.9858V11.9858Z" fill="white"/>
<path d="M13.922 20.7816C15.8 22.6076 17.651 23.6876 19.143 23.6876C19.632 23.6876 20.095 23.5846 20.48 23.3536C21.817 22.5816 22.306 20.6526 21.843 17.9006C21.766 17.4116 21.663 16.9236 21.534 16.4086C22.048 16.2546 22.511 16.0996 22.974 15.9456C25.572 14.9426 27.012 13.5536 27.012 12.0366C27.012 10.4936 25.572 9.10459 22.974 8.12759C22.511 7.94759 22.048 7.79359 21.534 7.66459C21.663 7.15059 21.766 6.66159 21.843 6.17259C22.28 3.36959 21.792 1.41459 20.454 0.642594C20.068 0.411594 19.605 0.308594 19.117 0.308594C17.651 0.308594 15.773 1.38859 13.896 3.21459C12.044 1.38859 10.192 0.308594 8.70103 0.308594C8.21203 0.308594 7.74903 0.411594 7.36403 0.642594C6.02703 1.41459 5.53803 3.34359 6.00103 6.09559C6.07803 6.58459 6.18103 7.07259 6.31003 7.58759C5.79603 7.74159 5.33303 7.89659 4.87003 8.05059C2.27203 9.05359 0.832031 10.4426 0.832031 11.9596C0.832031 13.5026 2.27203 14.8916 4.87003 15.8686C5.33303 16.0486 5.79603 16.2026 6.31003 16.3316C6.18463 16.824 6.08152 17.3219 6.00103 17.8236C5.56403 20.5756 6.05203 22.5306 7.36403 23.2766C7.75003 23.5086 8.21303 23.6106 8.70103 23.6106C10.193 23.6616 12.045 22.5816 13.922 20.7816ZM12.481 17.3096C12.944 17.3356 13.433 17.3356 13.921 17.3356C14.409 17.3356 14.898 17.3356 15.361 17.3096C14.9076 17.9056 14.4271 18.4806 13.921 19.0326C13.4147 18.4808 12.9342 17.9059 12.481 17.3096V17.3096ZM9.29203 14.6606C9.54903 15.0976 9.78103 15.5096 10.064 15.9206C9.3047 15.8232 8.54972 15.6944 7.80103 15.5346C8.03303 14.8406 8.29003 14.1196 8.59803 13.3996C8.80403 13.8106 9.03503 14.2486 9.29203 14.6596V14.6606ZM7.80003 8.46159C8.52003 8.30759 9.26603 8.17859 10.063 8.07559C9.80603 8.48759 9.54903 8.89859 9.29103 9.33559C9.03303 9.77259 8.80203 10.1846 8.59703 10.6216C8.28312 9.91998 8.01685 9.19801 7.80003 8.46059V8.46159ZM9.21503 11.9856C9.54903 11.2916 9.90903 10.5966 10.321 9.90259C10.707 9.23359 11.144 8.56559 11.581 7.89659C13.14 7.79296 14.7041 7.79296 16.263 7.89659C16.726 8.56559 17.137 9.23359 17.523 9.90259C17.935 10.5966 18.295 11.2916 18.629 11.9856C18.291 12.6957 17.9219 13.3907 17.523 14.0686C17.137 14.7376 16.7 15.4056 16.263 16.0746C14.7041 16.1782 13.14 16.1782 11.581 16.0746C11.1336 15.4236 10.7132 14.7543 10.321 14.0686C9.92232 13.3906 9.5533 12.6956 9.21503 11.9856V11.9856ZM19.272 10.5966L18.578 9.31059C18.321 8.87359 18.089 8.46159 17.806 8.05059C18.603 8.15359 19.349 8.28259 20.069 8.43659C19.838 9.15659 19.58 9.87659 19.272 10.5976V10.5966ZM19.272 13.3746C19.581 14.0946 19.838 14.8146 20.069 15.5096C19.349 15.6636 18.603 15.7926 17.806 15.8956C18.063 15.4836 18.32 15.0726 18.578 14.6356C18.81 14.2496 19.041 13.8126 19.272 13.3756V13.3746ZM19.863 22.2996C19.657 22.4286 19.4 22.4796 19.117 22.4796C17.857 22.4796 16.288 21.4506 14.745 19.9076C15.5312 19.0554 16.2614 18.1532 16.931 17.2066C18.0918 17.1118 19.2439 16.9313 20.378 16.6666C20.507 17.1296 20.584 17.5926 20.661 18.0556C21.021 20.2416 20.738 21.8106 19.864 22.2996H19.863ZM21.201 8.74459C24.082 9.56759 25.805 10.8276 25.805 11.9856C25.805 12.9886 24.622 13.9916 22.539 14.7896C22.127 14.9436 21.665 15.0986 21.202 15.2266C20.8521 14.1203 20.4312 13.0377 19.942 11.9856C20.456 10.8796 20.894 9.79959 21.202 8.74459H21.201ZM19.143 1.49159C19.426 1.49159 19.657 1.54259 19.889 1.67159C20.738 2.16059 21.046 3.70359 20.686 5.91559C20.609 6.35259 20.506 6.81559 20.403 7.30459C19.2643 7.06407 18.1137 6.88382 16.956 6.76459C16.2942 5.81214 15.5636 4.9094 14.77 4.06359C16.313 2.54559 17.882 1.49159 19.142 1.49159H19.143ZM15.362 6.66159C14.899 6.63559 14.41 6.63559 13.922 6.63559C13.434 6.63559 12.945 6.63559 12.482 6.66159C12.945 6.04459 13.434 5.47859 13.922 4.93859C14.411 5.47859 14.899 6.07059 15.362 6.66159ZM7.98003 1.67159C8.18603 1.54259 8.44303 1.49159 8.72603 1.49159C9.98603 1.49159 11.555 2.52059 13.098 4.06359C12.3116 4.91561 11.5814 5.81785 10.912 6.76459C9.75129 6.85937 8.59915 7.03986 7.46503 7.30459C7.33603 6.84159 7.25903 6.37859 7.18203 5.91559C6.82203 3.72959 7.10503 2.18659 7.97903 1.67159H7.98003ZM6.64303 15.2266C3.76203 14.4036 2.03903 13.1436 2.03903 11.9856C2.03903 10.9826 3.22203 9.97959 5.30503 9.18259C5.71703 9.02859 6.17903 8.87359 6.64203 8.74559C6.99198 9.85187 7.41285 10.9344 7.90203 11.9866C7.38803 13.0926 6.95003 14.1986 6.64203 15.2276L6.64303 15.2266ZM7.18303 18.0556C7.26003 17.6186 7.36303 17.1556 7.46603 16.6666C8.54603 16.8986 9.70403 17.0786 10.913 17.2066C11.5748 18.159 12.3055 19.0618 13.099 19.9076C11.556 21.4246 9.98703 22.4796 8.72703 22.4796C8.44403 22.4796 8.21303 22.4286 7.98103 22.2996C7.10603 21.8106 6.82403 20.2416 7.18403 18.0556H7.18303Z" fill="white"/>
</svg>
