<svg width="32768" height="31109" viewBox="0 0 32768 31109" fill="none" xmlns="http://www.w3.org/2000/svg">
<g clip-path="url(#clip0)">
<path fill-rule="evenodd" clip-rule="evenodd" d="M22704.8 21725.8C23914 21600.7 24831.4 20558.1 24789.7 19307.1C24748.2 18056.2 23705.5 17055.4 22454.6 17055.4H22371.3C21078.5 17097 20077.7 18181.2 20119.5 19473.9C20161.2 20099.5 20411.4 20641.6 20786.6 21016.8C19368.9 23810.8 17200.6 25854.1 13948.1 27563.8C11738 28731.4 9444.67 29148.4 7151.23 28856.6C5274.7 28606.3 3815.28 27772.4 2897.71 26396.1C1563.43 24352.9 1438.39 22142.7 2564.26 19932.6C3356.59 18348 4607.42 17180.4 5399.75 16596.6C5233.02 16054.4 4982.74 15137.2 4857.7 14470C-1188.69 18848.5 -563.085 24769.9 1271.56 27563.8C2647.63 29648.9 5441.43 30941.6 8527.09 30941.6C9361.01 30941.6 10194.9 30858.1 11028.9 30649.7C16366.5 29607.1 20411.3 26437.9 22704.6 21725.8H22704.8ZM30043.8 16555C26874.7 12843.6 22204.4 10800.4 16866.9 10800.4H16199.8C15824.5 10049.8 15032.2 9549.26 14156.6 9549.26H14073.1C12780.6 9590.94 11779.9 10675.1 11821.5 11967.9C11863.1 13218.9 12905.6 14219.7 14156.6 14219.7H14239.9C15157.3 14177.9 15949.6 13594.2 16283.2 12801.8H17033.7C20202.9 12801.8 23205.2 13719.2 25915.7 15512.4C28000.5 16888.5 29501.7 18681.6 30335.7 20850C31044.5 22601.5 31002.9 24311.1 30252.2 25770.7C29084.7 27980.8 27124.9 29190.1 24539.6 29190.1C22871.6 29190.1 21287.1 28689.7 20453.1 28314.3C19994.5 28731.3 19160.4 29398.4 18576.6 29815.6C20369.8 30649.5 22204.5 31108.3 23955.8 31108.3C27959 31108.3 30919.6 28898.2 32045.5 26688.1C33254.7 24269.4 33171.2 20099.5 30043.9 16555H30043.8ZM8860.84 22434.6C8902.52 23685.6 9945.03 24686.3 11196 24686.3H11279.4C12572.1 24644.7 13572.8 23560.4 13531.1 22267.7C13489.5 21016.7 12446.9 20016 11196 20016H11112.6C11029.1 20016 10904 20016 10820.7 20057.6C9111.02 17222 8402.15 14136.3 8652.43 10800.3C8819.06 8298.24 9653.17 6129.85 11112.6 4336.69C12321.8 2793.8 14656.9 2043.15 16241.5 2001.57C20661.5 1918.11 22537.9 7422.45 22663 9632.72C23205.2 9757.76 24122.5 10049.7 24748.1 10258.2C24247.6 3502.87 20077.7 0 16074.8 0C12321.8 0 8860.84 2710.54 7484.68 6713.78C5566.57 12051.4 6817.59 17180.4 9152.7 21225.4C8944.3 21517.3 8819.16 21976 8860.84 22434.8V22434.7V22434.6Z" fill="white"/>
</g>
<defs>
<clipPath id="clip0">
<rect width="333333" height="316450" fill="white" transform="scale(0.0983041)"/>
</clipPath>
</defs>
</svg>
